<svg width="36" height="33" viewBox="0 0 36 33" fill="none" xmlns="http://www.w3.org/2000/svg">
<path d="M18 32.7855C17.8703 32.7855 17.7405 32.7518 17.6243 32.6843C17.445 32.5808 13.1895 30.099 8.86577 26.1008C2.98276 20.661 0 15.2858 0 10.125C0 3.16875 4.70926 0 9.08477 0C12.459 0 16.2323 1.929 18 6.17175C19.7678 1.929 23.5418 0 26.9153 0C31.2908 0 36.0001 3.16875 36.0001 10.125C36.0001 15.2858 33.0173 20.661 27.1343 26.1008C22.8105 30.099 18.555 32.5815 18.3758 32.6843C18.2595 32.7518 18.1298 32.7855 18 32.7855ZM9.08477 1.5C5.43151 1.5 1.5 4.19925 1.5 10.125C1.5 20.5223 15.5055 29.622 18 31.1595C20.4923 29.6213 34.5001 20.5148 34.5001 10.125C34.5001 4.19925 30.5686 1.5 26.9153 1.5C23.5605 1.5 19.7303 3.7965 18.7365 8.92726C18.6683 9.27976 18.3593 9.53476 18 9.53476C17.6408 9.53476 17.3318 9.27976 17.2635 8.92726C16.2698 3.79725 12.4395 1.5 9.08477 1.5Z" fill="#CE3B29"/>
<path d="M9.08477 1.5C5.43151 1.5 1.5 4.19925 1.5 10.125C1.5 20.5223 15.5055 29.622 18 31.1595C20.4923 29.6213 34.5001 20.5148 34.5001 10.125C34.5001 4.19925 30.5686 1.5 26.9153 1.5C23.5605 1.5 19.7303 3.7965 18.7365 8.92726C18.6683 9.27976 18.3593 9.53476 18 9.53476C17.6408 9.53476 17.3318 9.27976 17.2635 8.92726C16.2698 3.79725 12.4395 1.5 9.08477 1.5Z" fill="#CE3B29"/>
</svg>
