<svg width="36" height="41" viewBox="0 0 36 41" fill="none" xmlns="http://www.w3.org/2000/svg">
<path d="M17.8811 21.4413C8.49003 21.4596 0.72132 29.1504 0.252154 38.8695C0.239666 39.1454 0.281568 39.4209 0.37531 39.6794C0.469051 39.938 0.612672 40.1741 0.797431 40.3734C0.982189 40.5727 1.20422 40.731 1.45001 40.8387C1.6958 40.9464 1.96021 41.0012 2.22715 40.9999H33.6119C33.8775 40.9991 34.1403 40.9426 34.3842 40.834C34.6282 40.7253 34.8484 40.5667 35.0315 40.3676C35.2146 40.1685 35.3569 39.9332 35.4497 39.6757C35.5425 39.4183 35.5839 39.144 35.5715 38.8695C35.1017 29.1381 27.3148 21.4424 17.9118 21.4413H17.8811Z" fill="#386E1A"/>
<path d="M17.9126 0C12.9345 0 8.87601 4.21776 8.87598 9.37276C8.87596 14.5278 12.9344 18.76 17.9126 18.76C22.8907 18.76 26.9632 14.5278 26.9632 9.37276C26.9632 4.21776 22.8907 0 17.9126 0Z" fill="#386E1A"/>
</svg>
