<svg width="33" height="36" viewBox="0 0 33 36" fill="none" xmlns="http://www.w3.org/2000/svg">
<path d="M16.2749 18.8265C7.60618 18.8426 0.435065 25.5955 0.00198872 34.1294C-0.00953902 34.3716 0.0291395 34.6135 0.11567 34.8405C0.202201 35.0675 0.334774 35.2748 0.505321 35.4498C0.675867 35.6248 0.88082 35.7638 1.1077 35.8584C1.33459 35.953 1.57866 36.0011 1.82506 35.9999H30.7956C31.0408 35.9992 31.2833 35.9497 31.5085 35.8543C31.7338 35.7589 31.937 35.6196 32.106 35.4448C32.2751 35.27 32.4064 35.0633 32.492 34.8373C32.5777 34.6112 32.6159 34.3704 32.6045 34.1294C32.1708 25.5847 24.9829 18.8275 16.3032 18.8265H16.2749Z" fill="#CE3B29"/>
<path d="M16.3038 0C11.7086 0 7.96235 3.7034 7.96233 8.22974C7.96231 12.7561 11.7086 16.4722 16.3038 16.4722C20.899 16.4722 24.6583 12.7561 24.6582 8.22974C24.6582 3.7034 20.899 0 16.3038 0Z" fill="#CE3B29"/>
</svg>
