<svg width="15" height="25" viewBox="0 0 15 25" fill="none" xmlns="http://www.w3.org/2000/svg">
<path d="M7.24074 3.78126C8.71403 3.78126 9.91219 4.97941 9.91219 6.45271C9.91219 7.92459 8.71403 9.12303 7.24074 9.12303C5.76886 9.12303 4.56928 7.92459 4.56928 6.45271C4.56928 4.97941 5.76886 3.78126 7.24074 3.78126ZM7.24074 12.9029C10.7997 12.9029 13.6927 10.0098 13.6927 6.45271C13.6927 2.89418 10.7997 0 7.24074 0C3.68263 0 0.788738 2.89418 0.788738 6.45271C0.788738 10.0097 3.68263 12.9029 7.24074 12.9029ZM9.85111 18.1664C11.1646 17.8671 12.4314 17.3475 13.5978 16.6145C14.4807 16.0581 14.7469 14.8909 14.1905 14.008C13.6348 13.123 12.4683 12.857 11.5839 13.4134C8.94116 15.0757 5.53832 15.075 2.89698 13.4134C2.01246 12.857 0.846123 13.1232 0.291009 14.008C-0.265384 14.8916 -4.28748e-05 16.0581 0.883055 16.6145C2.04939 17.3466 3.31616 17.8671 4.62965 18.1664L1.0224 21.7735C0.284901 22.5117 0.284901 23.7083 1.02311 24.4463C1.39257 24.8151 1.87596 24.9999 2.35919 24.9999C2.84329 24.9999 3.32738 24.8152 3.69684 24.4463L7.23988 20.9017L10.7861 24.4463C11.5236 25.1846 12.7201 25.1846 13.4582 24.4463C14.1971 23.7083 14.1971 22.5108 13.4582 21.7735C13.4584 21.7735 9.85111 18.1664 9.85111 18.1664Z" fill="#E0E0E0"/>
</svg>
