<svg width="36" height="36" viewBox="0 0 36 36" fill="none" xmlns="http://www.w3.org/2000/svg">
<path d="M14.4063 0C6.45062 0 0 6.24251 0 13.9414C0 21.6404 6.45062 27.8829 14.4063 27.8829C17.4655 27.8829 20.3027 26.9594 22.6348 25.3864L33.5294 35.9278C33.6277 36.023 33.787 36.023 33.8802 35.9343L35.9327 33.9481C36.0276 33.8563 36.0192 33.6988 35.926 33.6086L25.1737 23.2033C27.438 20.7415 28.8126 17.4972 28.8126 13.9414C28.8126 6.24251 22.362 0 14.4063 0ZM14.4063 26.2427C7.38622 26.2427 1.69485 20.735 1.69485 13.9414C1.69485 7.14786 7.38616 1.64021 14.4063 1.64021C21.4265 1.64021 27.1177 7.14786 27.1177 13.9414C27.1177 20.735 21.4264 26.2427 14.4063 26.2427Z" fill="#BC5047"/>
</svg>
