<svg width="25" height="25" viewBox="0 0 25 25" fill="none" xmlns="http://www.w3.org/2000/svg">
<path d="M23.0684 3.27592C22.6934 2.95792 22.1044 2.91242 21.4954 3.15692H21.4944C20.8539 3.41392 3.36392 10.9159 2.65192 11.2224C2.52242 11.2674 1.39142 11.6894 1.50792 12.6294C1.61192 13.4769 2.52092 13.8279 2.63192 13.8684L7.07842 15.3909C7.37342 16.3729 8.46092 19.9959 8.70142 20.7699C8.85142 21.2524 9.09592 21.8864 9.52442 22.0169C9.90042 22.1619 10.2744 22.0294 10.5164 21.8394L13.2349 19.3179L17.6234 22.7404L17.7279 22.8029C18.0259 22.9349 18.3114 23.0009 18.5839 23.0009C18.7944 23.0009 18.9964 22.9614 19.1894 22.8824C19.8469 22.6124 20.1099 21.9859 20.1374 21.9149L23.4154 4.87642C23.6154 3.96642 23.3374 3.50342 23.0684 3.27592ZM10.9999 15.9999L9.49992 19.9999L7.99992 14.9999L19.4999 6.49992L10.9999 15.9999Z" fill="#E0E0E0"/>
</svg>
