<svg width="25" height="25" viewBox="0 0 25 25" fill="none" xmlns="http://www.w3.org/2000/svg">
<path fill-rule="evenodd" clip-rule="evenodd" d="M25.0004 4.54971C24.0818 4.96807 23.0928 5.25088 22.0553 5.37725C23.1146 4.72725 23.9277 3.69639 24.3107 2.46865C23.3187 3.07061 22.2227 3.5085 21.0516 3.74326C20.1184 2.72158 18.7844 2.0835 17.3082 2.0835C14.4775 2.0835 12.1811 4.43838 12.1811 7.34268C12.1811 7.75498 12.225 8.15518 12.3131 8.54053C8.05059 8.32061 4.27207 6.229 1.74062 3.04346C1.29902 3.82295 1.04648 4.72725 1.04648 5.69033C1.04648 7.51416 1.95195 9.12412 3.32832 10.0677C2.48906 10.0421 1.69648 9.80283 1.00391 9.41162V9.47627C1.00391 12.0253 2.77207 14.1515 5.11992 14.6331C4.69004 14.7565 4.23652 14.8183 3.76836 14.8183C3.43828 14.8183 3.11543 14.7866 2.80273 14.7249C3.45566 16.8136 5.34863 18.3349 7.59375 18.3755C5.83867 19.787 3.62598 20.628 1.22383 20.628C0.809961 20.628 0.400586 20.604 0 20.5558C2.27012 22.0454 4.96719 22.9167 7.8623 22.9167C17.2977 22.9167 22.4555 14.9038 22.4555 7.95342C22.4555 7.72471 22.451 7.496 22.4422 7.27178C23.4449 6.52998 24.315 5.60459 25.0004 4.54971Z" fill="#E0E0E0"/>
</svg>
